<?xml version="1.0" encoding="UTF-8" standalone="no"?>
<svg xmlns="http://www.w3.org/2000/svg" version="1.0" width="512" height="512" viewBox="0 0 600.000000 600.000000" preserveAspectRatio="xMidYMid meet"><g transform="translate(0.000000,600.000000) scale(0.100000,-0.100000)" fill="#000000" stroke="none"><path d="M2755 5889 c-671 -59 -1288 -341 -1769 -809 -238 -232 -420 -476 -563 -755 -390 -763 -427 -1622 -103 -2430 85 -213 267 -522 420 -710 93 -116 299 -324 418 -423 203 -168 509 -351 737 -442 808 -324 1667 -287 2430 103 274 140 521 323 746 553 154 158 227 248 345 425 579 868 641 1985 161 2924 -226 441 -578 830 -1003 1108 -524 344 -1191 510 -1819 456z m625 -74 c509 -70 984 -273 1390 -594 122 -97 346 -319 444 -441 322 -402 530 -887 603 -1410 24 -174 24 -566 0 -740 -73 -522 -279 -1004 -603 -1410 -87 -109 -325 -347 -434 -434 -406 -324 -888 -530 -1410 -603 -174 -24 -566 -24 -740 0 -522 73 -1003 279 -1410 603 -108 86 -345 323 -434 434 -323 403 -530 888 -603 1410 -24 174 -24 566 0 740 73 523 281 1008 603 1410 98 122 322 344 444 441 418 330 934 546 1435 598 55 6 116 13 135 15 76 9 471 -4 580 -19z"/><path d="M3844 5070 c-41 -16 -54 -49 -54 -133 0 -71 -2 -78 -17 -72 -89 36 -65 35 -1218 33 l-1120 -3 -55 -26 c-99 -47 -169 -139 -190 -249 -14 -72 -14 -3178 0 -3250 21 -110 91 -202 190 -249 l55 -26 1120 -3 c1153 -2 1129 -3 1218 33 15 6 17 -1 17 -73 0 -71 3 -84 24 -109 l24 -28 149 -3 c86 -2 173 1 208 8 117 23 202 90 254 199 l26 56 3 648 3 647 122 0 c67 0 139 5 159 11 72 19 69 -26 66 875 l-3 806 -28 24 c-27 23 -34 24 -172 24 l-144 0 -3 303 c-3 301 -3 302 -29 357 -49 106 -128 171 -238 196 -63 15 -333 18 -367 4z m349 -174 c50 -18 76 -42 98 -91 18 -38 19 -114 19 -1810 0 -1696 -1 -1772 -19 -1810 -37 -80 -90 -104 -233 -105 l-98 0 0 1915 0 1915 98 0 c55 -1 113 -7 135 -14z m-516 -177 c40 -15 73 -48 94 -94 18 -38 19 -105 19 -1630 0 -1525 -1 -1592 -19 -1630 -21 -46 -54 -79 -94 -94 -19 -8 -368 -11 -1108 -11 -889 0 -1085 2 -1112 14 -42 17 -83 66 -97 114 -14 51 -14 3163 0 3214 13 47 55 97 95 114 39 17 2176 21 2222 3z m983 -1374 l0 -695 -90 0 -90 0 0 695 0 695 90 0 90 0 0 -695z"/><path d="M1584 4550 c-12 -5 -29 -19 -38 -32 -15 -20 -16 -161 -16 -1525 l0 -1502 24 -28 24 -28 990 0 990 0 26 24 26 24 0 1512 0 1512 -26 24 -26 24 -976 2 c-538 1 -987 -2 -998 -7z m1856 -1555 l0 -1395 -870 0 -870 0 0 1395 0 1395 870 0 870 0 0 -1395z"/><path d="M2118 3841 c-14 -11 -37 -48 -53 -82 -25 -57 -27 -69 -21 -137 4 -41 14 -88 22 -103 19 -38 14 -55 -73 -242 -100 -215 -117 -287 -110 -477 4 -122 10 -165 38 -270 47 -177 46 -258 -4 -402 -32 -93 -37 -119 -37 -197 0 -49 3 -97 6 -106 17 -44 27 -45 692 -45 l629 0 27 25 c25 23 26 29 26 119 0 83 -5 111 -40 221 -23 74 -40 146 -40 174 0 26 16 112 36 192 32 124 37 165 41 295 7 190 -8 253 -105 462 -92 198 -97 213 -78 250 8 16 18 63 22 104 6 68 4 80 -21 137 -45 99 -49 101 -244 101 -189 0 -196 -2 -232 -75 -12 -25 -26 -45 -29 -45 -4 0 -15 18 -25 41 -34 75 -45 79 -235 79 -151 0 -170 -2 -192 -19z m283 -163 c3 -42 -5 -85 -19 -102 -35 -38 -8 -175 63 -315 31 -63 32 -68 18 -95 -8 -15 -26 -71 -39 -123 -40 -160 -31 -333 31 -564 36 -134 33 -192 -15 -344 -22 -69 -40 -139 -40 -155 l0 -30 -175 0 c-207 0 -195 -13 -138 150 35 98 38 112 37 220 0 98 -5 133 -33 235 -24 91 -33 150 -38 241 -8 158 8 222 102 424 39 85 77 174 84 197 17 61 16 140 -1 161 -17 19 -32 87 -23 102 10 15 185 13 186 -2z m522 -37 c-1 -24 -9 -51 -18 -60 -22 -25 -19 -115 5 -187 11 -32 49 -120 84 -194 88 -187 100 -238 93 -397 -4 -102 -12 -153 -38 -253 -29 -107 -34 -141 -33 -235 0 -100 3 -119 37 -215 20 -58 37 -115 37 -127 l0 -23 -260 0 c-244 0 -260 1 -260 18 0 10 16 65 36 123 29 83 37 124 41 204 5 91 2 112 -32 245 -27 107 -38 175 -42 260 -7 148 12 228 106 429 75 159 86 191 97 264 5 41 3 53 -15 77 -14 20 -21 44 -21 75 l0 46 93 -3 92 -3 -2 -44z m-337 -118 c12 -31 13 -45 4 -75 -14 -48 -26 -48 -39 -2 -7 26 -7 48 2 75 6 22 13 39 14 39 2 0 10 -17 19 -37z"/></g></svg>
