<?xml version="1.0" encoding="UTF-8" standalone="no"?>
<svg xmlns="http://www.w3.org/2000/svg" version="1.0" width="512" height="512" viewBox="0 0 600.000000 600.000000" preserveAspectRatio="xMidYMid meet"><g transform="translate(0.000000,600.000000) scale(0.100000,-0.100000)" fill="#000000" stroke="none"><path d="M2755 5889 c-671 -59 -1288 -341 -1769 -809 -238 -232 -420 -476 -563 -755 -390 -763 -427 -1622 -103 -2430 85 -213 267 -522 420 -710 93 -116 299 -324 418 -423 203 -168 509 -351 737 -442 808 -324 1667 -287 2430 103 274 140 521 323 746 553 154 158 227 248 345 425 579 868 641 1985 161 2924 -226 441 -578 830 -1003 1108 -524 344 -1191 510 -1819 456z m625 -74 c509 -70 984 -273 1390 -594 122 -97 346 -319 444 -441 322 -402 530 -887 603 -1410 24 -174 24 -566 0 -740 -73 -522 -279 -1004 -603 -1410 -87 -109 -325 -347 -434 -434 -406 -324 -888 -530 -1410 -603 -174 -24 -566 -24 -740 0 -522 73 -1003 279 -1410 603 -108 86 -345 323 -434 434 -323 403 -530 888 -603 1410 -24 174 -24 566 0 740 73 523 281 1008 603 1410 98 122 322 344 444 441 418 330 934 546 1435 598 55 6 116 13 135 15 76 9 471 -4 580 -19z"/><path d="M1483 4781 c-95 -32 -152 -83 -204 -181 -21 -39 -24 -59 -24 -145 0 -90 3 -104 27 -145 36 -62 93 -115 153 -142 45 -21 67 -23 237 -26 178 -3 187 -3 207 17 25 25 27 49 5 79 -15 21 -21 22 -172 22 -86 0 -175 5 -197 11 -87 24 -145 99 -145 189 0 125 128 236 251 216 52 -8 94 -30 143 -73 29 -26 43 -33 60 -28 11 4 48 9 82 12 73 6 109 -9 154 -66 38 -47 60 -54 105 -35 83 34 152 5 190 -80 13 -29 31 -56 40 -60 9 -3 65 -6 125 -6 124 0 140 -4 140 -34 0 -45 -8 -46 -310 -46 -265 0 -288 -1 -303 -18 -24 -26 -21 -68 5 -86 19 -14 66 -16 316 -16 275 0 295 1 333 20 103 53 115 196 21 268 -33 25 -44 27 -144 30 -107 4 -109 4 -123 31 -19 38 -87 97 -132 116 -24 10 -62 15 -105 14 -59 -2 -71 1 -103 25 -68 52 -123 71 -210 71 -73 0 -84 3 -128 32 -83 54 -198 67 -294 34z"/><path d="M3575 4150 c-104 -22 -180 -65 -253 -144 -39 -42 -92 -135 -92 -161 0 -6 -23 -18 -51 -28 -156 -56 -234 -273 -137 -383 65 -74 65 -74 457 -74 383 0 381 0 381 59 0 61 -3 61 -374 61 l-337 0 -24 25 c-31 30 -32 65 -4 121 23 49 65 79 124 89 54 10 61 18 80 83 42 143 156 231 301 232 39 0 91 -7 114 -15 96 -34 175 -120 204 -223 17 -60 47 -89 80 -76 28 11 91 -18 136 -61 l45 -44 113 -3 c124 -3 142 -12 142 -68 0 -56 -17 -60 -233 -60 -184 0 -198 -1 -217 -20 -24 -24 -25 -48 -4 -78 15 -22 19 -22 226 -22 194 0 215 2 255 21 46 22 85 77 98 136 16 78 -49 179 -130 202 -22 6 -74 11 -116 11 -64 0 -79 3 -94 20 -29 32 -84 63 -134 76 -43 10 -48 15 -80 80 -91 180 -290 282 -476 244z"/><path d="M1577 3734 c-172 -31 -331 -117 -454 -247 -216 -227 -286 -548 -184 -844 96 -280 350 -498 638 -546 l78 -13 3 -176 2 -175 -57 -6 c-58 -6 -58 -6 -103 38 -25 24 -72 57 -105 72 -52 24 -72 28 -150 28 -82 0 -97 -3 -157 -33 -75 -37 -143 -105 -178 -179 -34 -70 -39 -188 -12 -268 l20 -59 -24 -23 c-29 -27 -31 -56 -4 -83 20 -20 33 -20 2115 -20 2082 0 2095 0 2115 20 11 11 20 29 20 40 0 29 -36 60 -70 60 -35 0 -36 3 -11 38 84 121 93 411 25 752 -90 443 -266 722 -439 695 -58 -8 -126 -54 -172 -115 l-38 -51 -15 23 c-52 79 -125 132 -196 144 -31 5 -53 1 -90 -15 -64 -29 -97 -60 -154 -149 l-47 -73 -351 1 c-384 1 -382 1 -382 -59 0 -60 5 -61 357 -61 177 0 328 -3 337 -6 20 -8 23 -103 4 -122 -17 -17 -1769 -17 -1786 0 -19 19 -16 114 4 122 9 3 217 6 462 6 246 0 452 4 458 8 37 24 36 91 -1 106 -9 3 -136 6 -281 6 -145 0 -264 2 -264 5 0 2 11 38 25 78 161 480 -149 994 -650 1082 -105 18 -184 18 -288 -1z m321 -130 c31 -8 100 -35 152 -61 77 -38 109 -61 176 -127 66 -67 89 -99 127 -176 62 -125 80 -201 80 -325 0 -107 -15 -184 -57 -282 l-24 -58 -139 -5 c-153 -6 -177 -13 -214 -73 -17 -27 -19 -45 -16 -122 2 -49 5 -96 8 -104 5 -16 -83 -49 -158 -58 l-53 -6 0 249 0 249 115 115 c120 120 133 143 98 182 -31 35 -63 23 -140 -54 l-73 -72 0 92 c0 79 -3 95 -20 112 -24 24 -57 26 -82 3 -16 -15 -18 -35 -18 -215 0 -109 -4 -198 -8 -198 -4 0 -37 29 -72 65 -68 69 -97 80 -132 48 -38 -34 -24 -61 97 -184 l116 -116 -3 -134 -3 -134 -46 2 c-26 2 -79 14 -119 29 -223 80 -387 258 -451 490 -73 263 30 569 249 738 177 135 400 183 610 130z m2381 -964 c121 -125 230 -471 261 -832 17 -205 -6 -347 -69 -409 -49 -50 -91 -59 -266 -59 -176 0 -216 9 -267 60 -59 59 -53 70 40 70 59 0 85 5 109 20 56 34 68 63 68 165 0 77 -3 94 -22 121 -35 49 -78 64 -178 64 l-87 0 6 31 c3 17 6 37 6 44 0 6 17 17 39 23 42 13 88 54 102 90 14 36 10 174 -5 201 -11 20 -11 28 0 50 9 16 14 60 14 115 0 80 3 94 32 148 46 87 99 138 143 138 28 0 43 -8 74 -40z m467 -6 c176 -188 319 -876 238 -1144 -20 -66 -73 -123 -129 -139 -22 -6 -91 -11 -153 -11 l-112 0 20 40 c70 138 76 397 15 708 -26 134 -73 302 -105 377 l-19 43 31 49 c51 82 97 123 137 123 28 0 42 -8 77 -46z m-841 -509 l0 -60 -900 0 -900 0 -3 49 c-2 27 -1 55 2 62 5 12 147 14 903 12 l898 -3 0 -60z m-1923 -59 c7 -55 32 -90 84 -116 35 -17 60 -20 197 -20 l157 0 0 -45 0 -45 -226 0 c-188 0 -232 -3 -260 -16 -45 -22 -73 -62 -80 -117 -7 -49 -27 -64 -57 -42 -15 11 -17 37 -17 213 0 218 -2 212 58 212 15 0 50 6 77 14 28 7 53 12 56 10 4 -2 9 -23 11 -48z m1508 -181 l0 -45 -470 0 -470 0 0 45 0 45 470 0 470 0 0 -45z m266 23 c-3 -13 -6 -33 -6 -45 0 -22 -4 -23 -70 -23 l-70 0 0 45 0 45 76 0 c74 0 76 -1 70 -22z m-2435 -174 c51 -15 96 -52 151 -122 20 -24 44 -27 100 -12 51 14 111 -2 167 -46 50 -39 45 -37 91 -24 30 9 37 7 61 -16 15 -14 44 -32 65 -39 46 -16 63 -54 48 -113 l-9 -37 -465 0 -464 0 -30 48 c-38 63 -47 146 -21 214 34 87 132 160 221 162 17 1 55 -6 85 -15z m2707 -81 l3 -63 -1026 0 -1025 0 0 58 c0 32 3 62 7 65 3 4 464 6 1022 5 l1016 -3 3 -62z m-1703 -258 l0 -70 -97 -3 -98 -3 0 76 0 76 98 -3 97 -3 0 -70z m1265 0 l0 -75 -570 0 -570 0 0 75 0 75 570 0 570 0 0 -75z m202 8 c18 -38 34 -71 36 -75 2 -5 -24 -8 -57 -8 l-61 0 0 75 c0 73 1 75 25 75 21 0 30 -11 57 -67z"/></g></svg>
